HIERARCHY
ROOT __0
{
	OFFSET 0.0 0.0 0.0
	CHANNELS 0
	JOINT hip
	{
		OFFSET 0.000000 -0.026249 1.054178
		CHANNELS 6 Xposition Yposition Zposition Xrotation Yrotation Zrotation
		JOINT spine
		{
			OFFSET 0.000000 0.011931 0.284082
			CHANNELS 3 Xrotation Yrotation Zrotation
			JOINT spine.001
			{
				OFFSET -0.000000 -0.031022 0.207850
				CHANNELS 3 Xrotation Yrotation Zrotation
				JOINT head
				{
					OFFSET 0.000000 0.045339 0.397661
					CHANNELS 3 Xrotation Yrotation Zrotation
					End Site
					{
						OFFSET 0.000000 0.000000 0.381644
					}
				}
				JOINT collar.L
				{
					OFFSET 0.000000 0.045339 0.397661
					CHANNELS 3 Xrotation Yrotation Zrotation
					JOINT shoulder.L
					{
						OFFSET -0.153096 0.000000 -0.089998
						CHANNELS 3 Xrotation Yrotation Zrotation
						JOINT UpperArm.L
						{
							OFFSET -0.183743 -0.000000 -0.064430
							CHANNELS 3 Xrotation Yrotation Zrotation
							JOINT LowerArm.L
							{
								OFFSET -0.309376 -0.063903 0.003301
								CHANNELS 3 Xrotation Yrotation Zrotation
								JOINT hand.L
								{
									OFFSET -0.294414 0.041948 -0.010574
									CHANNELS 3 Xrotation Yrotation Zrotation
									End Site
									{
										OFFSET -0.146658 -0.004199 -0.006440
									}
								}
							}
						}
					}
				}
				JOINT collar.R
				{
					OFFSET 0.000000 0.045339 0.397661
					CHANNELS 3 Xrotation Yrotation Zrotation
					JOINT shoulder.R
					{
						OFFSET 0.153096 0.000000 -0.089998
						CHANNELS 3 Xrotation Yrotation Zrotation
						JOINT UpperArm.R
						{
							OFFSET 0.183743 -0.000000 -0.064430
							CHANNELS 3 Xrotation Yrotation Zrotation
							JOINT LowerArm.R
							{
								OFFSET 0.309376 -0.063903 0.003301
								CHANNELS 3 Xrotation Yrotation Zrotation
								JOINT hand.R
								{
									OFFSET 0.294414 0.041948 -0.010574
									CHANNELS 3 Xrotation Yrotation Zrotation
									End Site
									{
										OFFSET 0.146658 -0.004199 -0.006440
									}
								}
							}
						}
					}
				}
			}
		}
		JOINT UpperLeg.L
		{
			OFFSET -0.157494 -0.002928 -0.153431
			CHANNELS 3 Xrotation Yrotation Zrotation
			JOINT LowerLeg.L
			{
				OFFSET -0.028635 0.043215 -0.458015
				CHANNELS 3 Xrotation Yrotation Zrotation
				JOINT Foot.L
				{
					OFFSET -0.021900 -0.057668 -0.375839
					CHANNELS 3 Xrotation Yrotation Zrotation
					End Site
					{
						OFFSET -0.008760 0.234651 -0.027840
					}
				}
			}
		}
		JOINT UpperLeg.R
		{
			OFFSET 0.157494 -0.002928 -0.153431
			CHANNELS 3 Xrotation Yrotation Zrotation
			JOINT LowerLeg.R
			{
				OFFSET 0.028635 0.043215 -0.458015
				CHANNELS 3 Xrotation Yrotation Zrotation
				JOINT Foot.R
				{
					OFFSET 0.021900 -0.057668 -0.375839
					CHANNELS 3 Xrotation Yrotation Zrotation
					End Site
					{
						OFFSET 0.008760 0.234651 -0.027840
					}
				}
			}
		}
	}
	JOINT IKPole.L
	{
		OFFSET -0.186129 0.631578 0.633967
		CHANNELS 6 Xposition Yposition Zposition Xrotation Yrotation Zrotation
		End Site
		{
			OFFSET 0.000000 0.335215 0.000000
		}
	}
	JOINT IKTagetLeg.L
	{
		OFFSET -0.205840 -0.043631 0.066894
		CHANNELS 6 Xposition Yposition Zposition Xrotation Yrotation Zrotation
		End Site
		{
			OFFSET 0.000000 -0.219538 0.026249
		}
	}
	JOINT IKPole.R
	{
		OFFSET 0.186129 0.631578 0.633967
		CHANNELS 6 Xposition Yposition Zposition Xrotation Yrotation Zrotation
		End Site
		{
			OFFSET 0.000000 0.335215 0.000000
		}
	}
	JOINT IKTagetLeg.R
	{
		OFFSET 0.205840 -0.043631 0.066894
		CHANNELS 6 Xposition Yposition Zposition Xrotation Yrotation Zrotation
		End Site
		{
			OFFSET 0.000000 -0.219538 0.026249
		}
	}
	JOINT IKArmPole.L
	{
		OFFSET -0.484735 -0.309871 1.764236
		CHANNELS 6 Xposition Yposition Zposition Xrotation Yrotation Zrotation
		End Site
		{
			OFFSET 0.000000 -0.320193 0.000000
		}
	}
	JOINT IKArmTarget.L
	{
		OFFSET -0.940628 -0.021955 1.782071
		CHANNELS 6 Xposition Yposition Zposition Xrotation Yrotation Zrotation
		End Site
		{
			OFFSET -0.302490 0.000000 0.000000
		}
	}
	JOINT IKArmPole.R
	{
		OFFSET 0.484735 -0.309871 1.764236
		CHANNELS 6 Xposition Yposition Zposition Xrotation Yrotation Zrotation
		End Site
		{
			OFFSET 0.000000 -0.320193 0.000000
		}
	}
	JOINT IKArmTarget.R
	{
		OFFSET 0.940628 -0.021955 1.782071
		CHANNELS 6 Xposition Yposition Zposition Xrotation Yrotation Zrotation
		End Site
		{
			OFFSET 0.302490 0.000000 0.000000
		}
	}
}
MOTION
Frames: 8
Frame Time: 0.041667
-0.030539 -0.074253 0.969517 -4.555039 -0.000001 0.000000 -2.591303 -0.174334 0.634414 -14.034630 0.064477 0.031824 5.810907 0.000002 -0.000000 -0.000000 -0.000000 -0.000000 3.227771 -4.657658 47.820446 -138.902975 67.355180 28.307917 -16.326923 -10.319090 -64.567458 122.869885 22.580307 -71.706386 -15.168535 5.423088 -24.169642 0.000000 0.000000 0.000004 -2.017720 -5.912826 134.422358 -0.758461 -2.489286 -19.455504 71.942075 13.496292 48.481096 48.859495 4.759158 14.917154 -19.314262 -0.521586 1.099052 15.963986 1.644180 -3.200516 -45.444985 -14.020368 -11.203772 -39.348481 1.414940 -1.990599 -26.210574 -15.395216 19.910087 -0.377701 0.611920 0.631169 -0.000000 0.000000 -0.000000 -0.263300 0.360036 0.151320 40.700558 3.965812 13.863498 0.117319 0.632319 0.633967 -0.000000 0.000000 -0.000000 0.291436 -0.776511 0.558086 -117.954129 -10.681198 -1.699463 -0.801354 0.212763 1.827163 -0.000000 0.000000 -0.000000 -0.640038 -0.169678 1.426214 -33.095361 -45.856230 -54.828831 1.003644 0.203371 1.504627 -0.000000 0.000000 -0.000000 0.155675 0.403291 1.350340 104.916132 117.663382 -8.202934 
-0.015269 -0.055701 0.924656 -4.555039 -0.000001 0.000000 -2.591303 -0.174334 0.634414 -14.034630 0.064477 0.031824 5.810907 0.000002 -0.000000 -0.000000 -0.000000 -0.000000 0.029350 -3.272254 35.951373 -72.770994 64.494983 -36.012439 -15.519056 -9.747666 -57.394810 125.476312 10.929112 -65.918313 -15.168535 5.423088 -24.169642 0.000000 0.000000 0.000004 -6.619687 -10.920290 122.580462 -0.758532 -2.489426 -19.456713 68.972480 26.687147 47.071116 47.991607 4.792639 10.207252 -35.350501 -1.212580 1.838496 16.039569 1.323395 -6.388565 -29.451472 -11.785656 -6.902888 -64.385755 2.869087 -2.590456 -9.098469 -9.675164 17.501912 -0.328562 0.622120 0.632568 -0.000000 0.000000 -0.000000 -0.234570 0.266151 0.087791 24.268497 0.973685 7.211341 0.152560 0.631949 0.633737 -0.000000 0.000000 -0.000000 0.248638 -0.650226 0.489921 -108.263040 -5.365927 -0.391468 -0.801354 0.212763 1.827163 -0.000000 0.000000 -0.000000 -0.614644 -0.025459 1.286209 -9.945181 -62.915017 -49.771063 0.968235 0.147662 1.532201 -0.000000 0.000000 -0.000000 0.294171 0.371496 1.261380 99.120969 122.754837 -15.524023 
-0.000000 -0.037148 0.879795 -4.555039 -0.000000 0.000000 -2.591303 -0.174334 0.634414 -14.034630 0.064477 0.031824 5.810907 0.000002 -0.000000 0.000001 -0.000000 0.000000 -5.788296 2.612252 5.852383 -45.340076 26.588806 -55.885246 -14.355102 -8.589183 -45.481485 129.486576 4.401712 -61.295969 -15.168537 5.423087 -24.169640 0.000000 -0.000003 0.000002 -16.519951 -12.690628 102.223295 -0.310358 -1.395443 -10.645610 56.951514 33.371416 43.341044 38.177571 4.223001 5.991572 -54.467159 -2.262799 2.429595 16.537266 1.677910 -10.276504 6.543221 -6.295827 -1.330798 -95.971616 4.830839 -2.387018 11.235648 -2.714930 11.258518 -0.271566 0.632319 0.633967 -0.000000 0.000000 -0.000000 -0.205840 0.046165 0.039340 -4.188125 -0.000000 -0.000000 0.195157 0.631578 0.633967 -0.000000 0.000000 -0.000000 0.205840 -0.364726 0.358503 -82.599008 0.000000 0.000000 -0.801354 0.212763 1.827163 -0.000000 0.000000 -0.000000 -0.555743 0.214624 1.146448 39.302698 -77.515530 -19.684289 0.876908 0.003215 1.604256 -0.000000 0.000000 -0.000000 0.459994 0.288591 1.172291 95.012747 127.406292 -34.633372 
0.000000 -0.047686 0.918881 -4.555039 -0.000000 0.000000 -2.591303 -0.174334 0.634414 -14.034630 0.064477 0.031824 5.810907 0.000002 -0.000000 0.000001 -0.000000 0.000000 -6.921679 10.971667 -29.294514 -33.900039 -5.753417 -22.913125 -17.302459 -10.831346 -72.552790 118.149773 30.653090 -75.131562 -15.168537 5.423087 -24.169640 0.000000 -0.000003 0.000002 -24.093615 0.291006 83.254549 -0.044922 2.241504 16.727210 43.286341 14.151141 26.994854 15.794700 3.822865 5.817888 -51.356606 -2.079374 2.357812 19.667875 0.211811 -9.918016 46.314280 -3.220871 1.445810 -91.367939 4.556631 -2.483896 4.597180 -1.156014 6.414444 -0.257787 0.632305 0.633967 -0.000000 0.000000 -0.000000 -0.205840 -0.220662 0.076692 -20.188829 -0.000000 0.000004 0.207825 0.631578 0.634869 -0.000000 0.000000 -0.000000 0.205840 -0.050947 0.256141 -44.992700 0.000007 -0.000026 -0.801354 0.212763 1.827163 -0.000000 0.000000 -0.000000 -0.483434 0.327055 1.238324 6.480803 -70.525549 -65.199941 0.752009 -0.195955 1.704790 -0.000000 0.000000 -0.000000 0.485097 0.174238 1.198473 103.535211 124.667891 -59.181376 
-0.000000 -0.058946 0.994234 -4.555039 -0.000000 0.000000 -2.591303 -0.174334 0.634414 -14.034630 0.064477 0.031824 5.810907 0.000002 -0.000000 0.000001 -0.000000 0.000000 -3.372664 13.942065 -54.167727 -24.010494 -20.726583 10.761823 -20.745907 -11.507977 -98.141711 111.445984 55.352580 -89.622314 -15.168537 5.423087 -24.169640 0.000000 -0.000003 0.000002 -29.196221 24.120793 67.311671 -0.773660 4.452192 34.137750 19.826274 1.370406 13.915345 -12.161095 1.715281 6.975294 -23.457675 -0.679830 1.308177 11.449899 -0.871765 -8.732335 53.368578 -1.715882 -0.597550 -55.414711 2.319402 -2.449473 -4.500919 -1.752007 4.033996 -0.247499 0.632264 0.633967 -0.000000 0.000000 -0.000000 -0.205840 -0.455185 0.142879 -28.473286 -0.000000 -0.000000 0.216847 0.631578 0.635735 -0.000000 0.000000 -0.000000 0.205840 0.196569 0.205919 -11.151469 0.000000 0.000000 -0.801354 0.212763 1.827163 -0.000000 0.000000 -0.000000 -0.394525 0.348796 1.386026 -3.132318 -59.458463 -88.572233 0.615889 -0.415829 1.817803 -0.000000 0.000000 -0.000000 0.496428 0.050774 1.281958 121.106904 122.377524 -86.618171 
0.000000 -0.059588 1.054195 -4.555039 -0.000000 0.000000 -2.591303 -0.174334 0.634414 -14.034630 0.064477 0.031824 5.810907 0.000002 -0.000000 0.000001 -0.000000 0.000000 -0.747453 12.823625 -66.233929 -13.815296 -24.715084 18.832838 -22.090514 -11.360899 -107.933716 98.834060 65.919412 -84.268415 -15.168537 5.423087 -24.169640 0.752368 -0.191499 -7.736840 -26.239553 36.069092 50.588920 -1.849265 6.034743 48.478244 2.650168 0.841197 7.805912 -27.524038 2.305834 7.476699 -11.620144 -0.269515 0.682795 5.653266 -0.946872 -8.899832 55.877037 -1.329872 -2.123734 -38.266077 1.359106 -1.950807 -5.307226 -3.411306 5.210047 -0.240118 0.632203 0.633967 -0.000000 0.000000 -0.000000 -0.226298 -0.586459 0.263383 -37.798065 1.727638 -0.234736 0.222891 0.631578 0.636569 -0.000000 0.000000 -0.000000 0.205011 0.336458 0.268879 7.645792 -1.091607 0.887741 -0.801354 0.212763 1.827163 -0.000000 0.000000 -0.000000 -0.288061 0.364780 1.462546 -22.682575 -63.773934 -114.095476 0.490895 -0.622392 1.927292 -0.000000 0.000000 -0.000000 0.543919 -0.059910 1.416931 136.932835 125.975394 -109.231916 
0.000000 -0.059267 1.089564 -4.555039 -0.000000 0.000000 -2.591303 -0.174334 0.634414 -14.034630 0.064477 0.031824 5.810907 0.000002 -0.000000 0.000001 -0.000000 0.000000 0.056339 12.104488 -72.075803 -3.375833 -23.748549 14.033007 -21.791121 -11.413519 -105.735140 81.300780 64.424332 -66.953592 -15.168537 5.423087 -24.169640 2.063658 -0.813862 -22.220291 -22.364780 32.927580 47.815692 -1.905680 6.097981 49.112636 -2.083413 6.382475 11.226472 -27.418925 6.740037 7.249589 -29.505048 -0.936953 1.591656 11.915876 -0.386782 -11.388432 70.295159 -2.007201 -2.350084 -50.504495 2.029811 -2.336416 -0.263486 -6.087883 8.214322 -0.235065 0.632127 0.633967 -0.000000 0.000000 -0.000000 -0.264293 -0.637911 0.405315 -49.193495 4.966467 -0.176916 0.226626 0.631578 0.637375 -0.000000 0.000000 -0.000000 0.203471 0.401776 0.409059 14.690566 -2.946877 2.713796 -0.801354 0.212763 1.827163 -0.000000 0.000000 -0.000000 -0.195329 0.392497 1.489268 -58.679002 -65.230356 -153.886088 0.399376 -0.781626 2.017257 -0.000000 0.000000 -0.000000 0.605250 -0.139288 1.547805 144.759002 131.496455 -121.441569 
-0.000000 -0.058946 1.101170 -4.555039 -0.000000 0.000000 -2.591303 -0.174334 0.634414 -14.034630 0.064477 0.031824 5.810907 0.000002 -0.000000 0.000001 -0.000000 0.000000 -0.063935 12.037653 -73.769588 1.746824 -18.222542 10.113502 -21.035835 -11.495492 -100.239767 80.171715 56.962637 -60.563192 -15.168537 5.423087 -24.169640 2.687877 -1.275604 -29.947016 -20.563944 29.161271 51.449455 -1.441964 5.531457 43.632806 -2.317274 9.778314 16.115275 -28.118738 9.908294 7.325601 -41.236769 -1.514107 2.057447 11.459375 0.783960 -13.943541 78.828682 -2.677022 -2.617472 -59.112863 2.543293 -2.518016 1.217375 -7.832416 10.091545 -0.231758 0.632041 0.633967 -0.000000 0.000000 -0.000000 -0.284751 -0.658762 0.502775 -62.166872 6.695401 0.521413 0.228721 0.631578 0.638156 -0.000000 0.000000 -0.000000 0.202642 0.418703 0.486722 15.935390 -3.939776 3.708091 -0.801354 0.212763 1.827163 -0.000000 0.000000 -0.000000 -0.155675 0.432642 1.498352 -75.083867 -62.336616 -171.797071 0.363680 -0.859514 2.071697 -0.000000 0.000000 -0.000000 0.640038 -0.169678 1.606548 146.904638 134.143768 -125.171167 
